1.8Hz3min_grf.mot
version=1
nRows=22
nColumns 19
inDegrees=yes
endheader
time	1_ground_force_vx	1_ground_force_vy	1_ground_force_vz	1_ground_force_px	1_ground_force_py	1_ground_force_pz	1_ground_torque_x	1_ground_torque_y	1_ground_torque_z	2_ground_force_vx	2_ground_force_vy	2_ground_force_vz	2_ground_force_px	2_ground_force_py	2_ground_force_pz	2_ground_torque_x	2_ground_torque_y	2_ground_torque_z
            1.253500	           25.157588	          515.556261	          -37.931086	           -0.214740	            0.006065	           -0.367804	            0.012869	            0.263725	           -0.019403	           15.087663	          599.381704	           25.501590	           -0.203894	            0.005689	           -0.681387	            0.006026	            0.239409	            0.010186
            1.254000	           25.431272	          519.343104	          -38.190672	           -0.215186	            0.006065	           -0.367637	            0.022102	            0.451345	           -0.033190	           15.212388	          603.800706	           25.798868	           -0.203724	            0.005691	           -0.681570	            0.005160	            0.204814	            0.008751
            1.254500	           26.071328	          522.049345	          -38.685090	           -0.215078	            0.006066	           -0.367882	            0.024406	            0.488705	           -0.036214	           15.580061	          605.826283	           26.228290	           -0.203695	            0.005689	           -0.680963	            0.005310	            0.206465	            0.008939
            1.255000	           26.528077	          524.395081	          -39.180590	           -0.215198	            0.006066	           -0.367993	            0.023531	            0.465150	           -0.034754	           15.793849	          611.534502	           26.577056	           -0.204086	            0.005689	           -0.681528	            0.005400	            0.209081	            0.009087
            1.255500	           26.709033	          528.904541	          -39.803704	           -0.215428	            0.006064	           -0.367557	            0.016376	            0.324282	           -0.024404	           15.829546	          614.664075	           26.916703	           -0.204104	            0.005687	           -0.681020	            0.004704	            0.182673	            0.007999
            1.256000	           26.983174	          531.429039	          -39.976989	           -0.215450	            0.006065	           -0.367775	            0.018686	            0.368009	           -0.027684	           15.766846	          619.082567	           27.167132	           -0.204094	            0.005688	           -0.681199	            0.005332	            0.209349	            0.009187
            1.256500	           27.164864	          535.036157	          -40.374692	           -0.215654	            0.006066	           -0.367991	            0.021041	            0.414425	           -0.031273	           15.938624	          623.500187	           27.933672	           -0.204294	            0.005688	           -0.681406	            0.005368	            0.209986	            0.009408
            1.257000	           27.621059	          537.923445	          -41.051297	           -0.215661	            0.006065	           -0.367639	            0.026625	            0.518528	           -0.039571	           15.779549	          628.655071	           28.139841	           -0.204198	            0.005690	           -0.681755	            0.006872	            0.273794	            0.012256
            1.257500	           28.215250	          542.612102	          -41.399526	           -0.215716	            0.006064	           -0.367584	            0.032563	            0.626224	           -0.047779	           16.143235	          631.785493	           28.573205	           -0.204297	            0.005689	           -0.681712	            0.003100	            0.121318	            0.005487
            1.258000	           28.122731	          544.055193	          -41.622398	           -0.215703	            0.006065	           -0.367651	            0.031695	            0.613156	           -0.046909	           16.176311	          635.651294	           29.009336	           -0.204174	            0.005689	           -0.681689	            0.004482	            0.176112	            0.008037
            1.258500	           28.807982	          546.582326	          -42.392830	           -0.215835	            0.006066	           -0.367913	            0.031513	            0.597903	           -0.046373	           16.020621	          639.885034	           29.353005	           -0.204422	            0.005689	           -0.681783	            0.005523	            0.220613	            0.010120
            1.259000	           29.035464	          549.829180	          -42.838045	           -0.215929	            0.006064	           -0.367596	            0.028345	            0.536745	           -0.041819	           16.097287	          644.671144	           29.933186	           -0.204598	            0.005689	           -0.682038	            0.004832	            0.193530	            0.008986
            1.259500	           28.896320	          553.075644	          -43.236497	           -0.216186	            0.006064	           -0.367550	            0.024987	            0.478252	           -0.037387	           16.086215	          647.799878	           30.460565	           -0.204646	            0.005688	           -0.681899	            0.005532	            0.222793	            0.010476
            1.260000	           29.628274	          555.240940	          -43.687601	           -0.216276	            0.006065	           -0.367706	            0.033427	            0.626427	           -0.049289	           16.213594	          651.482317	           30.755215	           -0.204623	            0.005689	           -0.681896	            0.003575	            0.143650	            0.006781
            1.260500	           29.581448	          558.125968	          -43.858544	           -0.216124	            0.006064	           -0.367606	            0.035663	            0.672872	           -0.052875	           16.152371	          655.531479	           31.332828	           -0.204653	            0.005689	           -0.682116	            0.004410	            0.178986	            0.008555
            1.261000	           29.671777	          561.191909	          -44.166618	           -0.216171	            0.006064	           -0.367614	            0.037914	            0.717074	           -0.056435	           16.470452	          658.293998	           31.577185	           -0.204737	            0.005688	           -0.681926	            0.003482	            0.139162	            0.006675
            1.261500	           29.900081	          562.454962	          -44.436912	           -0.216460	            0.006066	           -0.367982	            0.038090	            0.716526	           -0.056609	           16.504196	          661.975596	           32.012659	           -0.204777	            0.005688	           -0.681947	            0.003563	            0.142900	            0.006911
            1.262000	           30.081608	          565.702003	          -44.927873	           -0.216182	            0.006064	           -0.367543	            0.035870	            0.674551	           -0.053573	           16.304415	          665.471768	           32.588360	           -0.204809	            0.005688	           -0.681897	            0.003835	            0.156543	            0.007666
            1.262500	           30.125637	          568.768722	          -45.419257	           -0.216584	            0.006064	           -0.367545	            0.030198	            0.570131	           -0.045528	           16.666607	          668.971810	           32.647613	           -0.204893	            0.005688	           -0.682047	            0.002758	            0.110714	            0.005403
            1.263000	           30.215613	          570.033124	          -46.010205	           -0.216503	            0.006066	           -0.367959	            0.034617	            0.653068	           -0.052712	           16.506303	          674.494139	           33.089737	           -0.204975	            0.005689	           -0.682483	            0.001803	            0.073696	            0.003615
            1.263500	           30.488353	          574.001714	          -46.635865	           -0.216521	            0.006064	           -0.367481	            0.038472	            0.724317	           -0.058849	           16.500608	          676.149245	           33.752644	           -0.205074	            0.005688	           -0.682156	            0.003393	            0.139029	            0.006940
            1.264000	           30.441386	          575.805799	          -46.949009	           -0.216601	            0.006064	           -0.367637	            0.041131	            0.778010	           -0.063436	           16.581845	          679.646979	           34.140513	           -0.205127	            0.005688	           -0.682386	            0.001977	            0.081013	            0.004070
